<svg xmlns="http://www.w3.org/2000/svg" viewBox="0 0 810 810" version="1.0">
  <defs>
    <clipPath id="a">
      <path d="M6.676 0h796.648v810H6.676Zm0 0"/>
    </clipPath>
    <clipPath id="b">
      <path d="M44.926 0h720.148a38.253 38.253 0 0 1 38.25 38.25v733.5a38.253 38.253 0 0 1-38.25 38.25H44.926a38.253 38.253 0 0 1-38.25-38.25V38.25A38.253 38.253 0 0 1 44.926 0Zm0 0"/>
    </clipPath>
    <clipPath id="c">
      <path d="M139 108.633h532V748.09H139Zm0 0"/>
    </clipPath>
  </defs>
  <g clip-path="url(#a)">
    <g clip-path="url(#b)">
      <path fill="#171717" d="M6.676 0h796.648v809.098H6.676Zm0 0"/>
    </g>
  </g>
  <g clip-path="url(#c)">
    <path fill="#fff" d="M468.02 714.84c0 10.23 18.543 33.254 18.543 33.254s18.546-23.024 18.546-33.254c0-8.313-6.394-15.988-14.07-17.906v-257.7c6.395-1.918 10.871-3.199 11.512-3.836 13.43-3.84 24.3-5.117 33.89-5.117 47.32 0 53.715 36.45 53.715 36.45 1.282-24.301.64-70.981 0-74.817-.64-3.836-1.277-7.672-2.558-11.512-12.79-24.297-35.168-31.972-59.47-31.972-12.148 0-24.937 1.918-37.089 5.117V227.574c30.695 4.477 61.39 8.953 92.723 8.953 33.89 0 70.98-1.28 85.047-37.73 1.28-3.195 1.28-7.672 1.28-11.508 0-3.84-3.835-49.879-8.312-74.18 0 0-3.199 42.844-59.472 42.844-37.086 0-78.653-5.113-120.856-12.148v107.43s.64 0 .64.636V384.88h-29.417V177.055c0-62.028-136.203-68.422-175.211-68.422-33.25 0-67.781 5.117-95.277 25.578-31.973 23.023-49.239 66.504-39.649 105.512 8.953 33.254 30.695 45.402 63.945 45.402 14.711 0 30.055 0 44.762-1.281 0 0 9.594-.637 9.594-1.278 0-.64-4.477-.64-7.672-.64h-1.922c-1.918-.637-3.836-.637-6.394-1.278-29.414-8.953-40.286-39.648-40.922-68.421-.64-56.274 38.367-90.805 83.129-90.805 23.66 0 83.129 17.266 83.129 84.41V349.07c-6.395-4.476-14.07-8.312-21.102-8.312-8.953 0-15.988 5.113-20.465 12.148-1.918 2.559-3.836 5.758-5.113 8.953-5.758 12.79-10.23 25.579-14.707 39.008-1.918 5.754-3.84 12.149-5.758 17.903.64-1.278-1.918 7.035.64 3.84 1.278-3.2 3.2-7.036 4.477-10.235 1.918-6.395 12.149-10.867 18.543-10.867 16.625 0 33.89 15.984 43.485 29.414v171.375c-41.567-18.547-76.098-40.926-108.07-40.926-19.184 0-37.087 10.871-48.598 28.137l-37.09 56.27s20.465-24.938 41.566-24.938c2.559 0 5.754 0 8.313 1.277 59.468 23.66 136.203 72.899 203.347 72.899 9.594 0 19.184-4.477 25.578-13.426l26.86-38.367v53.71c-8.317 1.919-14.07 9.594-14.07 17.907Zm1.918-88.246c-27.497 0-53.075-6.395-76.094-14.707l58.828-62.028V419.41h29.418v205.906c-4.477.641-8.317 1.278-12.152 1.278Zm0 0"/>
  </g>
</svg>